# xmcd
#
# Track frame offsets: 
#        183
#        11793
#        23478
#        35500
#        49278
#        62068
#        71838
#        79410
#        89285
#        103960
#        110303
#        123070
#        135723
#        148733
#        161725
#        171740
#        186820
#        200365
#        210840
#        222965
#        236205
#        250520
#        264038
#        273045
#
# Disc length: 3760 seconds
#
# Revision: 0
# Processed by: cddbd v1.5.1PL2 Copyright (c) Steve Scherf et al.
# Submitted via: ExactAudioCopy v0.95b3
#
DISCID=5a0eae18
DTITLE=Various Artist - Sun archives.Too blue to cry Volume 6
DYEAR=1992
DGENRE=Blues
TTITLE0=Howlin' wolf/Dorothy Mae
TTITLE1=Howlin' wolf/Come back come
TTITLE2=Howlin' wolf/Oh Red
TTITLE3=Howlin' wolf/My last affair
TTITLE4=Ike and Bonnie Turner/ Old brother Jack
TTITLE5=Ike and Bonnie Turner/ Love is like a gamble
TTITLE6=Shy Guy/Hip shakin' mama
TTITLE7=Shy Guy/Detroit arrow blues
TTITLE8=Sleepy John Estes/ Policy man
TTITLE9=Sleepy John Estes/ Time has made a change
TTITLE10=Willie Nix/ Bakershop boogie
TTITLE11=Walter Bradford/ Too blue to cry
TTITLE12=Kenneth Banks/ Blue man
TTITLE13=Erskine McLellan/ Got me a horse and a wagon
TTITLE14=Rosco Gordon/ I don't like it
TTITLE15=Rosco gordon/ Don't take it out on me
TTITLE16=Johnny London/ Screamin' for love(instr.)
TTITLE17=Johnny London/ Drivin' slow
TTITLE18=Little Milton/ Oo-wee-baby
TTITLE19=Eddie Snow/ Sorry little baby
TTITLE20=Eddie Snow/ Who's been drinking my wine
TTITLE21=Eddie Snow/ Got to put you down
TTITLE22=Big lucky Carter/ gonna break that lock
TTITLE23=Unknow/ Oh baby
EXTD=
EXTT0=
EXTT1=
EXTT2=
EXTT3=
EXTT4=
EXTT5=
EXTT6=
EXTT7=
EXTT8=
EXTT9=
EXTT10=
EXTT11=
EXTT12=
EXTT13=
EXTT14=
EXTT15=
EXTT16=
EXTT17=
EXTT18=
EXTT19=
EXTT20=
EXTT21=
EXTT22=
EXTT23=
PLAYORDER=
